<?xml version="1.0" standalone="no"?>
<!DOCTYPE svg PUBLIC "-//W3C//DTD SVG 20010904//EN"
 "http://www.w3.org/TR/2001/REC-SVG-20010904/DTD/svg10.dtd">
<svg version="1.0" xmlns="http://www.w3.org/2000/svg"
 width="600.000000pt" height="600.000000pt" viewBox="0 0 600.000000 600.000000"
 preserveAspectRatio="xMidYMid meet">

<g transform="translate(0.000000,600.000000) scale(0.100000,-0.100000)"
fill="#000000" stroke="none">
<path d="M3035 5069 c-91 -13 -211 -46 -272 -74 -50 -22 -57 -23 -76 -10 -26
18 -68 20 -85 3 -7 -7 -12 -24 -12 -40 0 -16 -7 -31 -19 -37 -24 -13 -32 -54
-15 -86 12 -23 10 -32 -21 -88 -60 -110 -80 -201 -79 -367 0 -107 4 -156 16
-188 10 -27 12 -44 6 -48 -21 -13 -48 -91 -48 -140 0 -69 25 -148 61 -188 25
-29 28 -38 19 -61 -25 -65 -6 -102 46 -89 14 4 24 2 24 -4 0 -26 34 -43 77
-41 36 3 46 -1 60 -21 9 -14 34 -44 56 -67 l40 -42 -29 -6 c-55 -11 -79 -31
-128 -104 -41 -60 -47 -77 -38 -91 13 -21 8 -23 -258 -125 -214 -82 -270 -107
-356 -160 -154 -96 -248 -233 -338 -493 -80 -231 -182 -608 -222 -821 l-18
-94 23 -18 c13 -11 32 -19 42 -19 18 0 19 -10 19 -167 0 -191 13 -263 62 -356
39 -72 104 -141 152 -161 42 -18 131 -23 201 -12 l50 7 0 -48 0 -48 550 -7
c535 -6 866 -18 1070 -38 146 -14 315 -12 345 3 21 11 25 19 22 49 -3 35 -2
35 42 40 61 7 121 39 188 97 83 75 91 97 92 277 l1 152 35 5 c19 3 139 17 265
32 430 48 465 53 498 72 51 30 74 85 103 249 54 307 161 979 157 987 -7 11
-161 8 -378 -8 -198 -15 -299 -26 -589 -66 -179 -25 -166 -31 -221 116 -49
134 -80 189 -136 239 -50 45 -232 143 -316 171 -41 13 -53 21 -53 37 0 22 -50
73 -81 83 -12 4 -29 15 -39 25 -18 18 -18 19 13 25 57 12 169 78 220 129 97
97 142 256 103 366 -12 34 -14 69 -9 155 7 129 -9 313 -39 440 -27 118 -30
229 -5 244 9 6 17 22 17 36 0 14 11 42 24 63 35 53 41 87 22 117 -9 14 -25 25
-35 25 -14 0 -18 5 -14 20 8 32 -23 70 -57 70 -19 0 -28 4 -25 13 11 29 -13
38 -111 44 -54 3 -104 10 -110 15 -37 28 -357 46 -489 27z m318 -437 c120 -82
157 -88 157 -29 0 46 6 49 51 27 21 -11 68 -24 105 -29 36 -6 67 -11 69 -13 3
-5 45 -273 45 -292 0 -14 -5 -13 -33 8 -63 48 -162 71 -174 40 -8 -22 8 -34
58 -45 24 -6 70 -20 101 -32 l58 -22 -1 -175 c-1 -96 -4 -186 -8 -200 -5 -15
-2 -41 7 -65 39 -106 7 -238 -77 -321 -89 -88 -216 -134 -371 -134 -109 0
-178 16 -259 62 l-54 30 20 -26 c73 -92 176 -136 320 -136 66 0 95 -4 97 -12
25 -92 25 -128 -1 -205 -22 -66 -36 -88 -88 -143 -68 -71 -85 -97 -85 -131 0
-21 -3 -20 -41 16 -40 39 -41 41 -35 90 20 158 20 152 -8 190 -15 20 -78 69
-139 110 -62 41 -132 92 -156 113 l-44 39 26 35 c31 40 33 51 12 68 -8 7 -15
24 -15 37 0 18 -32 58 -115 146 -63 66 -115 128 -115 137 0 21 -20 40 -42 40
-85 0 -152 149 -113 248 20 48 39 62 88 62 29 0 38 -6 61 -40 21 -31 33 -40
55 -40 66 0 71 14 46 125 l-16 66 33 60 c34 62 42 69 52 44 3 -8 9 -15 14 -15
13 0 109 133 151 210 31 57 39 67 44 51 9 -38 53 -27 82 20 l26 40 39 -35 c45
-41 77 -59 89 -51 5 3 12 20 16 38 10 48 16 67 21 67 3 0 24 -13 47 -28z
m-499 -1209 c-10 -44 -18 -45 -54 -8 l-34 35 47 0 c47 0 47 0 41 -27z m-4
-107 c30 -32 98 -89 150 -126 52 -38 113 -84 135 -103 l39 -34 -63 -69 c-35
-38 -82 -95 -106 -126 l-43 -58 -20 33 c-11 17 -41 75 -67 127 -46 94 -91 161
-181 272 l-46 57 32 58 c18 32 40 66 49 76 15 18 17 18 41 -15 14 -18 50 -59
80 -92z m-152 -128 c52 -68 108 -164 152 -258 56 -120 96 -180 120 -180 4 0
21 23 39 50 18 28 62 87 97 132 l64 81 0 -93 0 -93 64 -63 c68 -67 101 -124
112 -192 7 -48 27 -52 32 -6 5 38 -14 100 -44 146 l-24 37 22 38 c12 21 45 67
74 103 29 36 71 105 95 153 41 85 42 90 31 133 -21 77 -13 82 42 30 31 -29 36
-39 36 -80 0 -49 -13 -74 -77 -148 -20 -23 -35 -54 -39 -78 -4 -23 -9 -39 -13
-38 -68 36 -71 35 -105 -24 l-19 -33 31 29 31 29 41 -37 c23 -21 47 -35 53
-33 7 2 13 23 15 48 4 79 16 101 102 195 11 12 20 36 20 53 0 37 9 38 58 8 20
-13 75 -43 120 -67 100 -51 184 -126 216 -189 29 -57 109 -261 105 -265 -2 -2
-33 -9 -69 -15 -108 -21 -134 -36 -159 -89 -28 -63 -112 -337 -161 -529 -21
-85 -41 -158 -44 -160 -3 -3 -40 25 -82 63 -70 63 -80 69 -118 67 -22 -1 -113
-27 -201 -58 -229 -81 -343 -112 -390 -107 -30 3 -46 -1 -64 -17 -13 -12 -43
-26 -65 -32 -23 -6 -171 -47 -330 -91 -158 -43 -290 -78 -291 -76 -2 2 3 44
11 93 17 109 30 406 20 461 -7 36 -9 38 -22 19 -8 -10 -14 -28 -14 -39 0 -16
-7 -12 -35 20 l-35 39 21 -55 c32 -79 32 -93 15 -236 -8 -71 -18 -171 -22
-221 -4 -51 -9 -93 -12 -93 -3 0 -24 9 -46 19 -67 33 -212 71 -366 97 -80 13
-155 24 -167 24 -13 0 -23 3 -23 8 0 4 27 111 59 237 150 585 234 808 348 934
96 107 163 145 466 266 92 37 191 82 220 100 28 18 55 33 58 34 4 1 25 -23 47
-51z m2602 -545 c0 -5 -11 -71 -25 -148 -14 -77 -55 -310 -90 -517 -36 -207
-72 -394 -81 -417 -8 -22 -27 -47 -40 -56 -19 -12 -182 -34 -637 -86 -337 -38
-648 -75 -692 -82 l-81 -13 33 141 c104 442 231 911 269 991 8 17 27 36 41 43
35 16 438 86 613 106 319 36 690 56 690 38z m-1680 -824 c41 -33 79 -64 83
-69 5 -4 1 -43 -8 -86 -26 -123 -20 -114 -71 -110 -25 2 -53 10 -62 19 -42 36
-185 82 -219 69 -26 -9 -12 -20 33 -27 119 -17 194 -57 194 -101 0 -37 -21
-38 -97 -6 -108 47 -114 47 -204 6 -49 -22 -89 -34 -102 -30 -13 3 -55 -11
-115 -39 -51 -24 -99 -41 -108 -38 -48 18 -99 240 -61 271 6 6 58 22 115 36
56 13 122 34 145 46 69 34 329 118 367 119 29 1 49 -10 110 -60z m-776 -341
c8 -30 25 -67 36 -81 l21 -26 -43 -25 c-72 -41 -492 -261 -673 -351 -186 -93
-255 -115 -355 -115 -55 0 -73 5 -111 28 -53 34 -92 78 -125 143 -46 91 -56
151 -61 368 -5 195 -5 203 13 198 11 -3 80 -20 154 -37 74 -16 180 -44 235
-61 l100 -32 -84 -28 c-84 -29 -164 -70 -177 -91 -4 -7 6 -3 22 9 51 36 100
51 478 148 204 52 409 105 456 118 l85 23 6 -66 c4 -37 14 -92 23 -122z
m-1326 119 c4 -29 -7 -34 -39 -17 -22 12 -25 36 -6 43 25 11 42 1 45 -26z
m2125 -68 l23 -10 -12 -92 c-7 -51 -13 -93 -13 -94 -1 -2 -16 -3 -34 -3 -43 0
-139 27 -300 83 -117 42 -125 46 -95 52 18 4 54 18 80 31 26 13 56 24 67 24
11 0 56 -16 101 -36 49 -21 88 -33 100 -29 25 8 43 41 37 66 -6 22 10 25 46 8z
m-356 -153 c240 -97 253 -100 418 -92 77 3 151 9 165 12 l25 5 0 -213 c1 -154
5 -231 16 -280 13 -57 13 -68 1 -73 -24 -9 -150 -5 -334 10 -216 17 -1348 49
-1475 41 l-93 -5 0 47 0 47 65 26 c36 15 246 121 467 237 222 115 415 213 430
216 15 3 35 15 45 25 17 17 90 60 105 61 3 0 78 -29 165 -64z m969 -53 c-18
-61 -36 -149 -46 -220 -11 -75 -16 -87 -52 -128 -46 -53 -131 -105 -169 -105
-48 0 -52 16 -57 230 l-5 199 24 5 c13 3 83 11 154 19 72 8 136 15 143 16 8 0
11 -6 8 -16z"/>
<path d="M3175 4321 c-55 -25 -123 -86 -111 -98 2 -3 25 7 50 22 27 16 77 32
118 39 57 10 74 16 76 30 9 44 -50 47 -133 7z"/>
<path d="M3192 4192 c-9 -6 -12 -28 -10 -68 3 -55 5 -59 27 -59 20 0 27 7 33
34 14 52 7 96 -17 99 -11 1 -26 -2 -33 -6z"/>
<path d="M3644 4175 c-24 -37 -3 -105 33 -105 14 0 43 56 43 84 0 19 -27 46
-45 46 -8 0 -22 -11 -31 -25z"/>
<path d="M2556 4044 c-19 -18 -21 -28 -5 -18 7 4 29 -13 54 -41 29 -35 46 -47
58 -42 37 14 3 73 -60 106 -28 14 -29 14 -47 -5z"/>
<path d="M3520 4010 c0 -6 7 -13 15 -17 9 -3 22 -18 31 -34 16 -32 7 -62 -21
-73 -18 -6 -63 9 -86 30 -18 16 -49 9 -49 -12 0 -22 71 -64 108 -64 44 0 68
14 88 51 18 36 12 77 -17 108 -20 21 -69 29 -69 11z"/>
<path d="M3366 3714 c-45 -44 82 -120 158 -94 51 16 110 90 86 105 -6 3 -25
-5 -42 -19 -18 -13 -45 -27 -59 -31 -30 -7 -83 15 -92 40 -8 19 -31 19 -51 -1z"/>
<path d="M3101 2835 c0 -5 10 -30 22 -55 16 -32 31 -48 53 -55 17 -6 39 -16
48 -24 9 -8 19 -11 22 -8 14 13 -7 36 -43 47 -49 16 -60 26 -83 69 -11 20 -19
32 -19 26z"/>
<path d="M2245 2780 c3 -19 21 -132 40 -250 19 -118 37 -239 41 -267 5 -38 11
-53 22 -53 40 0 -38 480 -94 580 -14 25 -14 25 -9 -10z"/>
<path d="M2485 2555 c5 -176 13 -221 32 -201 5 4 8 69 7 144 0 117 -4 145 -22
192 l-22 55 5 -190z"/>
<path d="M4620 2170 c0 -32 -25 -73 -60 -98 -23 -18 -30 -29 -26 -44 3 -15 -3
-27 -20 -41 -32 -25 -29 -63 8 -90 56 -42 197 -30 251 21 36 34 35 66 -3 94
-16 12 -30 28 -30 35 0 7 -11 19 -25 25 -14 6 -25 18 -25 27 0 20 -47 91 -60
91 -6 0 -10 -9 -10 -20z m67 -122 c29 4 35 -22 12 -52 -24 -30 -7 -46 21 -21
24 22 52 12 48 -16 -10 -72 -248 -82 -248 -12 0 24 30 53 53 53 21 0 21 0 1
14 -18 14 -18 16 18 46 20 17 40 40 44 53 6 19 9 16 19 -23 9 -37 15 -44 32
-42z"/>
<path d="M3407 1794 c-78 -14 -157 -42 -125 -43 9 -1 52 6 95 14 130 25 178
21 246 -21 32 -20 61 -33 64 -30 10 10 -38 55 -82 76 -47 23 -88 24 -198 4z"/>
<path d="M3437 1688 c-54 -12 -96 -22 -95 -24 2 -2 49 2 105 8 110 12 104 13
175 -43 17 -14 33 -19 45 -15 15 7 12 11 -19 27 -21 11 -38 24 -38 30 0 8 -63
41 -72 38 -2 -1 -47 -10 -101 -21z"/>
<path d="M3073 1297 c-47 -52 -233 -343 -233 -365 0 -64 143 132 232 316 32
69 33 85 1 49z"/>
</g>
</svg>
